<svg width="40" height="40" viewBox="0 0 40 40" fill="none" xmlns="http://www.w3.org/2000/svg">
<g clip-path="url(#clip0_59_73)">
<path d="M19.9983 3.47185e-08C16.2078 0.00768585 12.498 1.09482 9.30303 3.13413L10.0598 4.22929C13.0455 2.33584 16.5053 1.33049 20.0399 1.33049C22.3104 1.33049 24.5642 1.7446 26.6849 2.55454L27.2089 1.33132C24.9213 0.451159 22.4911 -0.000144527 20.0399 3.47185e-08H19.9983ZM28.5895 1.92256L28.0655 3.14578C32.5815 5.30034 36.0412 9.18038 37.663 13.9119L38.9355 13.5294C37.7379 8.10767 34.2781 3.76695 28.5895 1.92256ZM19.99 2.91044C16.7964 2.91959 13.661 3.82682 10.9581 5.52901L19.8819 18.419C22.4767 13.7789 24.4311 8.93922 26.0612 4.0081C24.14 3.28215 22.0941 2.91044 20.0399 2.91044H19.99ZM22.4351 3.65302L24.0236 5.63712L22.8593 6.57262L21.2708 4.58769L22.4351 3.65302ZM8.07216 3.98565C1.84128 7.33432 0.465694 12.4068 0.179599 17.9616L1.50861 18.0448C2.04005 12.8974 4.69225 8.19914 8.82898 5.07997L8.07216 3.98565ZM17.2289 4.57356C17.9108 4.57356 18.5429 4.74985 19.0502 5.08912C19.5575 5.42756 19.965 5.98304 19.965 6.65245C19.965 7.32601 19.5575 7.87483 19.0502 8.21577C18.5429 8.55671 17.9108 8.73133 17.2289 8.73133C16.5469 8.73133 15.9148 8.55671 15.4075 8.21577C14.9002 7.87483 14.4927 7.32601 14.4927 6.65245C14.4927 5.98304 14.9002 5.42756 15.4075 5.08912C15.9148 4.74985 16.5469 4.57356 17.2289 4.57356ZM27.4418 4.59933C25.9198 9.52963 23.9737 14.2861 21.3623 18.7765L27.0426 17.0802C26.7764 16.6727 26.6267 16.1738 26.6267 15.6499C26.6267 14.4025 27.5 13.255 28.7392 13.255C29.9784 13.255 30.8516 14.4025 30.8516 15.6499C30.8516 15.7497 30.8433 15.8495 30.835 15.9576L36.1494 14.3693C34.6607 10.0868 31.5253 6.56763 27.4418 4.59933ZM17.2289 6.07036C16.813 6.07036 16.4554 6.1901 16.2392 6.33313C16.0229 6.47532 15.9897 6.58675 15.9897 6.65245C15.9897 6.71814 16.0229 6.82957 16.2392 6.97176C16.4554 7.11812 16.813 7.23453 17.2289 7.23453C17.6447 7.23453 18.0023 7.11812 18.2185 6.97176C18.4348 6.82957 18.468 6.71814 18.468 6.65245C18.468 6.58675 18.4348 6.47532 18.2185 6.33313C18.0023 6.1901 17.6447 6.07036 17.2289 6.07036ZM9.72718 6.3797C5.98799 9.22195 3.58529 13.4795 3.08712 18.1445C8.29671 18.1944 13.4946 18.2942 18.5512 19.1091L16.9627 16.8141L15.4241 17.6539L14.7089 16.3401L16.1061 15.575L11.3656 8.74797L9.44441 10.2697L8.51294 9.0889L10.509 7.50895L9.72718 6.3797ZM29.155 7.52558L30.1696 9.19701L28.8889 9.97867L27.8742 8.30724L29.155 7.52558ZM20.2977 9.44647L20.9464 10.7936L18.4348 11.9827L17.7861 10.6356L20.2977 9.44647ZM9.01194 11.226C10.4258 11.226 11.4737 12.5232 11.4737 13.9701C11.4737 15.417 10.4258 16.7143 9.01194 16.7143C7.5981 16.7143 6.5502 15.417 6.5502 13.9701C6.5502 12.5232 7.5981 11.226 9.01194 11.226ZM33.7957 11.9993L34.1035 14.2944L32.6231 14.494L32.3154 12.1989L33.7957 11.9993ZM9.01194 12.7228C8.53789 12.7228 8.04721 13.2134 8.04721 13.9701C8.04721 14.7269 8.53789 15.2175 9.01194 15.2175C9.486 15.2175 9.97668 14.7269 9.97668 13.9701C9.97668 13.2134 9.486 12.7228 9.01194 12.7228ZM28.7392 14.7518C28.473 14.7518 28.1237 15.0761 28.1237 15.6499C28.1237 16.2237 28.473 16.548 28.7392 16.548C29.0053 16.548 29.3546 16.2237 29.3546 15.6499C29.3546 15.0761 29.0053 14.7518 28.7392 14.7518ZM39.3679 14.968L38.0872 15.3422C38.4697 16.8473 38.6693 18.4023 38.6693 19.9573C38.6693 23.874 37.4385 27.6908 35.143 30.8673L36.1909 31.6906C38.6693 28.2812 40 24.1733 40 19.9573C40 18.2776 39.7921 16.5979 39.3679 14.968ZM36.5735 15.7996L26.2608 18.8846L27.0925 19.475L26.2275 20.6891L24.4478 19.4251L21.6367 20.265C25.3875 23.8324 29.7621 26.7262 33.8955 29.8861C35.8749 26.9923 36.507 23.5164 37.0891 19.9573C37.3137 18.5686 36.9145 17.155 36.5735 15.7996ZM0.0856206 19.4584C0.0773039 19.6247 0.0856206 19.791 0.0773039 19.9573C-0.345185 25.8032 0.830798 31.491 6.94441 35.0251L7.78107 33.9857C3.7325 30.4516 1.40964 25.3375 1.41047 19.9573V19.5416L0.0856206 19.4584ZM2.99397 19.6413V19.9573C2.99397 21.7868 3.28672 23.5996 3.86307 25.3375L4.77708 23.3833L6.1327 24.0153L4.62488 27.2418C5.6179 29.3456 7.02924 31.2166 8.77076 32.755L18.5429 20.6143L7.80602 19.9407L5.76011 21.978L4.70223 20.9136L5.80169 19.816L2.99397 19.6413ZM33.5629 20.7307C33.7542 20.7224 33.9454 20.7473 34.1367 20.8138C34.7355 20.9968 35.1597 21.4874 35.3593 22.0445C35.5589 22.5851 35.5589 23.2004 35.3676 23.8074C35.1846 24.4062 34.8187 24.9134 34.353 25.2543C33.8706 25.5787 33.2468 25.745 32.6397 25.5537C32.4235 25.4872 32.2322 25.3791 32.0659 25.246L31.4172 25.9861L29.1217 24.007L30.1031 22.8761L31.309 23.9155C31.2259 23.4748 31.2591 23.0091 31.4005 22.5601C31.5918 21.9531 31.9494 21.4541 32.4235 21.1215C32.7561 20.8887 33.1553 20.739 33.5629 20.7307ZM11.8479 21.188L14.318 22.1194L13.7857 23.5164L11.3157 22.5851L11.8479 21.188ZM20.8882 21.5706L21.329 28.6055C21.7282 28.6887 22.0941 28.8217 22.4185 29.013C22.9757 29.3373 23.4497 29.8944 23.4497 30.6012C23.4497 31.3081 22.9757 31.8652 22.4185 32.1895C22.1607 32.3392 21.8779 32.4556 21.5785 32.5388L21.8529 36.9044C22.7761 36.8047 23.6826 36.63 24.5725 36.3889L24.8636 33.9691L26.344 34.152L26.136 35.8733C28.7808 34.8671 31.1261 33.2123 32.9724 31.0669C31.2508 29.7115 29.1966 28.7469 27.7994 27.0006L27.2006 28.672L25.7867 28.1731L26.5519 26.0194C24.2066 24.8552 22.7428 23.0757 20.8882 21.5706ZM19.4161 21.9281L9.9351 33.6863C12.8626 35.8401 16.4055 37.0042 20.0399 37.0042H20.3559L20.0815 32.6635C19.4827 32.6219 18.9338 32.4639 18.4764 32.1895C17.9191 31.8652 17.4451 31.3081 17.4451 30.6012C17.4451 29.8944 17.9191 29.3373 18.4764 29.013C18.8672 28.7801 19.333 28.6305 19.832 28.5639L19.4161 21.9281ZM33.6045 22.2275C33.5213 22.2192 33.4215 22.2524 33.2884 22.3356C33.1138 22.4603 32.9308 22.7015 32.831 23.0091C32.7395 23.3168 32.7561 23.6162 32.8227 23.8158C32.8975 24.0153 32.9973 24.0985 33.0888 24.1234C33.1886 24.1567 33.3134 24.1401 33.488 24.0236C33.6544 23.9072 33.8456 23.6661 33.9454 23.3584C34.0369 23.0507 34.0203 22.743 33.9538 22.5518C33.8789 22.3522 33.7791 22.2691 33.6876 22.2358C33.6627 22.2275 33.6377 22.2275 33.6045 22.2275ZM9.21154 24.7138C9.56916 24.7222 9.92678 24.8053 10.2594 24.9633C11.4487 25.5371 12.0309 26.9674 11.4571 28.1565C10.8832 29.3539 9.40283 29.7946 8.21354 29.2209C7.02259 28.6471 6.44541 27.2251 7.0176 26.0277C7.43177 25.1712 8.30502 24.7055 9.21154 24.7138ZM9.13669 26.2023C8.80403 26.2106 8.50462 26.3853 8.36324 26.6763C8.16364 27.1004 8.35492 27.6326 8.86224 27.8737C9.36956 28.1149 9.90183 27.932 10.1097 27.5079C10.3094 27.0921 10.1181 26.5599 9.61075 26.3187C9.45273 26.2356 9.2864 26.2023 9.13669 26.2023ZM20.4474 30.0192C19.9484 30.0192 19.4993 30.1522 19.2332 30.3019C18.967 30.4599 18.9421 30.5763 18.9421 30.6012C18.9421 30.6262 18.967 30.7426 19.2332 30.9006C19.4993 31.0503 19.9484 31.1833 20.4474 31.1833C20.9464 31.1833 21.3955 31.0503 21.6617 30.9006C21.9278 30.7426 21.9527 30.6262 21.9527 30.6012C21.9527 30.5763 21.9278 30.4599 21.6617 30.3019C21.3955 30.1522 20.9464 30.0192 20.4474 30.0192ZM34.2116 32.0482C31.1011 35.6904 26.7182 37.9938 21.9527 38.4844L22.0359 39.8149C27.3586 40.0893 32.3985 38.8752 35.2595 32.8714L34.2116 32.0482ZM13.7608 32.2976L16.0978 32.5138L15.9647 34.0106L13.6277 33.7944L13.7608 32.2976ZM8.94541 34.917L8.11374 35.9565C11.1161 39.6985 15.6154 40.2556 20.0399 39.9147C20.2062 39.898 20.3726 39.9147 20.5389 39.9064L20.4557 38.5759C20.3144 38.5842 20.1813 38.5842 20.0399 38.5842C16.0479 38.5842 12.1557 37.2953 8.94541 34.917Z" fill="white"/>
</g>
<defs>
<clipPath id="clip0_59_73">
<rect width="40" height="40" fill="white"/>
</clipPath>
</defs>
</svg>
