<svg width="281" height="108" viewBox="0 0 281 108" fill="none" xmlns="http://www.w3.org/2000/svg">
<path d="M0.527344 65.7402L7.5 61.5156C8.59375 68.2422 12.627 71.6055 19.5996 71.6055C22.9902 71.6055 25.7656 70.6895 27.9258 68.8574C30.0859 66.998 31.166 64.6191 31.166 61.7207C31.166 57.7559 28.7734 53.8184 23.9883 49.9082L19.0254 45.8887C15.0332 42.6074 12.3672 40.0234 11.0273 38.1367C9.6875 36.2227 9.01758 34.0762 9.01758 31.6973C9.01758 27.2129 10.8086 23.5078 14.3906 20.582C17.9727 17.6562 22.498 16.1934 27.9668 16.1934C32.3145 16.1934 36.4297 17.2324 40.3125 19.3105L37.9336 24.7656L36.8672 27.1855C36.2656 28.6074 35.5547 29.3184 34.7344 29.3184C34.3789 29.3184 34.0098 29.1816 33.627 28.9082C34.0918 27.4863 34.3242 26.3516 34.3242 25.5039C34.3242 23.7539 33.3535 22.291 31.4121 21.1152C29.498 19.9395 27.1191 19.3516 24.2754 19.3516C17.8223 19.3516 14.5957 22.0176 14.5957 27.3496C14.5957 29.2637 15.3066 31.1094 16.7285 32.8867C18.1777 34.6367 21.1719 37.3574 25.7109 41.0488L29.6895 44.3301C34.748 48.4316 37.2773 52.7383 37.2773 57.25C37.2773 62.2266 35.1719 66.3691 30.9609 69.6777C26.7773 72.9863 21.541 74.6406 15.252 74.6406C7.5957 74.6406 2.6875 71.6738 0.527344 65.7402ZM58.7859 73.4922L58.4578 76.7324C57.6102 85.209 54.5477 92.4551 49.2703 98.4707C43.993 104.486 38.0594 107.494 31.4695 107.494C30.1023 107.494 28.7898 107.33 27.532 107.002L33.4793 101.096C35.0379 101.561 36.5145 101.793 37.909 101.793C46.0574 101.793 50.7605 95.4492 52.0184 82.7617L56.284 40.2285C54.9988 41.1855 53.618 42.293 52.1414 43.5508C50.3367 45.082 48.7508 46.2852 47.3836 47.1602L47.7117 43.8789C52.3328 41.1445 57.4051 37.2344 62.9285 32.1484L61.0418 51.1387C63.9402 46.0527 67.1941 41.8828 70.8035 38.6289C74.4129 35.375 77.5848 33.748 80.3191 33.748C84.2566 33.748 86.2254 37.1113 86.2254 43.8379C86.2254 51.8496 83.6414 58.8086 78.4734 64.7148C73.3055 70.5938 67.2078 73.5332 60.1805 73.5332L58.7859 73.4922ZM59.4012 67.3809C61.616 68.7754 64.118 69.4727 66.907 69.4727C70.6531 69.4727 73.6883 67.2852 76.0125 62.9102C78.3641 58.5352 79.5398 52.8613 79.5398 45.8887C79.5398 41.8145 78.4324 39.7773 76.2176 39.7773C73.784 39.7773 70.8992 41.6367 67.5633 45.3555C63.1063 50.3047 60.5359 56.1699 59.8523 62.9512L59.4012 67.3809ZM120.654 59.957C121.338 60.4219 121.679 60.9688 121.679 61.5977C121.679 62.4453 120.804 63.8945 119.054 65.9453C114.379 71.3594 109.757 74.0664 105.191 74.0664C102.402 74.0664 100.105 72.959 98.3004 70.7441C96.4957 68.5293 95.5934 65.6992 95.5934 62.2539C95.5934 56.0195 97.9449 49.7168 102.648 43.3457C107.379 36.9473 112.054 33.748 116.675 33.748C120.011 33.748 121.679 35.5391 121.679 39.1211C121.679 43.1406 119.724 47.0645 115.814 50.8926C111.931 54.7207 107.187 57.3867 101.582 58.8906C102.129 65.4805 104.726 68.7754 109.375 68.7754C113.968 68.7754 117.728 65.8359 120.654 59.957ZM101.746 53.8867C102.539 54.1602 103.263 54.2969 103.92 54.2969C107.31 54.2969 110.277 53.2578 112.82 51.1797C115.363 49.1016 116.634 46.668 116.634 43.8789C116.634 40.6797 115.007 39.0801 111.754 39.0801C109.402 39.0801 107.269 40.4883 105.355 43.3047C103.468 46.0938 102.265 49.6211 101.746 53.8867ZM159.758 34.8145L155.082 40.4336C152.895 39.5312 150.803 39.0801 148.807 39.0801C145.225 39.0801 142.395 40.5977 140.317 43.6328C138.266 46.668 137.241 50.8242 137.241 56.1016C137.241 59.8203 137.979 62.8145 139.455 65.084C140.959 67.3535 142.914 68.4883 145.321 68.4883C149.395 68.4883 152.594 65.8223 154.918 60.4902C155.52 61.1465 155.821 61.7617 155.821 62.3359C155.821 64.6055 154.043 67.1348 150.489 69.9238C146.961 72.6855 143.721 74.0664 140.768 74.0664C137.924 74.0664 135.586 72.9316 133.754 70.6621C131.95 68.3652 131.047 65.3984 131.047 61.7617C131.047 54.6797 133.454 48.2402 138.266 42.4434C143.079 36.6465 148.424 33.748 154.303 33.748C156.436 33.748 158.254 34.1035 159.758 34.8145ZM187.419 61.0645C188.157 61.502 188.527 61.9258 188.527 62.3359C188.527 63.3203 187.337 65.2617 184.958 68.1602C181.759 72.0977 178.792 74.0664 176.058 74.0664C174.062 74.0664 173.064 72.7402 173.064 70.0879C173.064 68.9668 173.474 65.5215 174.294 59.752L175.894 48.5957L176.304 45.7656L176.632 43.5098C176.769 42.5527 176.837 41.7461 176.837 41.0898C176.837 39.7227 176.454 39.0391 175.689 39.0391C173.556 39.0391 171.259 41.3906 168.798 46.0938C168.279 45.6289 168.019 45.1641 168.019 44.6992C168.019 43.0312 169.55 40.7891 172.613 37.9727C175.702 35.1562 178.163 33.748 179.995 33.748C182.046 33.748 183.071 35.1699 183.071 38.0137C183.071 38.5605 182.962 39.6816 182.743 41.377L182.374 44.125C182.347 44.3438 182.196 45.4512 181.923 47.4473L180.241 59.1777L179.831 61.8027C179.476 64.4004 179.298 66.1367 179.298 67.0117C179.298 68.1875 179.64 68.7754 180.323 68.7754C182.62 68.7754 184.986 66.2051 187.419 61.0645ZM179.175 28.457L182.62 19.9668C185.683 18.709 188.198 16.9727 190.167 14.7578C190.441 15.1406 190.577 15.5371 190.577 15.9473C190.577 19.6113 186.777 23.7812 179.175 28.457ZM222.094 56.7168C219.004 61.8027 215.6 65.9727 211.881 69.2266C208.189 72.4531 204.977 74.0664 202.242 74.0664C198.496 74.0664 196.623 71.0449 196.623 65.002C196.623 56.6895 199.344 49.498 204.785 43.4277C210.254 37.3301 216.721 34.2812 224.186 34.2812C227.029 34.2812 229.449 34.6367 231.445 35.3477C231.309 35.8398 231.227 36.1406 231.199 36.25L230.707 38.4238C230.379 39.9277 230.201 40.8027 230.174 41.0488L227.549 59.1777L227.18 61.8027C226.824 64.4004 226.646 66.1367 226.646 67.0117C226.646 68.1875 226.988 68.7754 227.672 68.7754C229.969 68.7754 232.32 66.2051 234.727 61.0645C235.465 61.502 235.834 61.9395 235.834 62.377C235.834 63.334 234.658 65.2617 232.307 68.1602C229.107 72.0977 226.141 74.0664 223.406 74.0664C221.41 74.0664 220.412 72.7266 220.412 70.0469C220.412 69.2266 220.508 68.0918 220.699 66.6426L221.109 63.3613L221.643 59.752L222.094 56.7168ZM224.432 40.4336C221.943 39.0391 219.428 38.3418 216.885 38.3418C213.057 38.3418 209.844 40.6797 207.246 45.3555C204.648 50.0312 203.35 55.8281 203.35 62.7461C203.35 66.3008 204.402 68.0781 206.508 68.0781C208.941 68.0781 211.881 66.2188 215.326 62.5C219.975 57.4961 222.791 51.6172 223.775 44.8633L224.432 40.4336ZM260.583 60.9414C261.376 61.3242 261.772 61.8164 261.772 62.418C261.772 64.3867 260.296 66.8203 257.343 69.7188C254.417 72.6172 251.956 74.0664 249.96 74.0664C247.69 74.0664 246.555 72.4258 246.555 69.1445C246.555 67.1484 246.679 65.1113 246.925 63.0332L247.376 59.3828L250.534 30.8359C251.518 22.1406 254.499 14.8809 259.475 9.05664C264.479 3.23242 270.235 0.320312 276.743 0.320312C278.329 0.320312 279.669 0.457031 280.762 0.730469L274.938 6.67773C273.653 6.24023 272.149 6.02148 270.427 6.02148C266.325 6.02148 263.249 7.4707 261.198 10.3691C259.175 13.2402 257.78 18.1211 257.014 25.0117L253.2 59.3828C252.899 62.0352 252.749 63.9355 252.749 65.084C252.749 67.5449 253.173 68.7754 254.02 68.7754C255.032 68.7754 256.221 67.9688 257.589 66.3555C258.956 64.7148 259.954 62.9102 260.583 60.9414Z" fill="#B83922"/>
</svg>
