<svg width="47" height="46" viewBox="0 0 47 46" fill="none" xmlns="http://www.w3.org/2000/svg">
<path d="M38.8672 38.8672C35.683 42.0513 31.6262 44.2197 27.2096 45.0982C22.7931 45.9767 18.2153 45.5258 14.055 43.8026C9.89469 42.0794 6.33884 39.1611 3.83708 35.417C1.33531 31.6728 2.77338e-07 27.2709 0 22.7679C-2.77338e-07 18.2648 1.33531 13.8629 3.83707 10.1187C6.33884 6.37456 9.89469 3.45635 14.055 1.7331C18.2153 0.00985524 22.7931 -0.441025 27.2096 0.437477C31.6262 1.31598 35.683 3.48441 38.8671 6.66855L22.7679 22.7679L38.8672 38.8672Z" fill="white"/>
<path opacity="0.3" d="M41.435 9.56497C43.1993 11.3293 44.5989 13.4238 45.5537 15.729C46.5085 18.0342 47 20.5049 47 23C47 25.4951 46.5086 27.9658 45.5537 30.271C44.5989 32.5762 43.1993 34.6707 41.435 36.435L28 23L41.435 9.56497Z" fill="white"/>
<circle cx="17.4106" cy="9.375" r="3.125" fill="#B83922"/>
<circle cx="39.3393" cy="16.3393" r="1.33929" fill="#B83922"/>
<circle cx="41" cy="30" r="1" fill="#B83922"/>
<circle cx="0.5" cy="0.5" r="0.5" transform="matrix(1 0 0 -1 43 22)" fill="#B83922"/>
<circle cx="36.5" cy="23.5" r="1.5" fill="#B83922"/>
</svg>
